<?xml version="1.0" encoding="utf-8"?>
<!-- Generator: Adobe Illustrator 26.0.3, SVG Export Plug-In . SVG Version: 6.00 Build 0)  -->
<svg version="1.1" id="Capa_1" xmlns="http://www.w3.org/2000/svg" xmlns:xlink="http://www.w3.org/1999/xlink" x="0px" y="0px"
	 viewBox="0 0 365 97" style="enable-background:new 0 0 365 97;" xml:space="preserve">
<style type="text/css">
	.st0{fill:#00B4E6;}
	.st1{fill:#F1841B;}
</style>
<g>
	<g>
		<path class="st0" d="M183.2,95.3c-4.2,0-7.9-1-11.3-3c-3.4-2-5.9-4.8-7.7-8.4c-1.8-3.6-2.7-7.8-2.7-12.7c0-5,0.9-9.3,2.8-12.9
			s4.5-6.5,7.8-8.4c3.3-2,7-2.9,11.1-2.9c5.2,0,9.5,1.3,12.9,4c3.4,2.7,5.6,6.1,6.6,10.3h-4.3c-0.7-3.2-2.5-5.8-5.2-7.7
			c-2.7-1.9-6.1-2.9-10-2.9c-3,0-5.8,0.8-8.5,2.3c-2.7,1.5-4.8,3.8-6.5,6.8c-1.7,3-2.5,6.8-2.5,11.4c0,3.7,0.5,6.8,1.5,9.3
			c1,2.5,2.3,4.6,4,6.2c1.6,1.6,3.5,2.9,5.6,3.7c2.1,0.9,4.2,1.3,6.3,1.3c2.5,0,4.8-0.4,7-1.3c2.1-0.9,3.9-2.1,5.4-3.7
			c1.4-1.6,2.4-3.5,2.9-5.7h4.3c-0.9,4.1-3,7.5-6.4,10.2S188.5,95.3,183.2,95.3z"/>
		<path class="st0" d="M213.6,94.2v-66h4v29.4c1.7-3.4,3.9-6.1,6.9-7.9c2.9-1.9,6.1-2.8,9.5-2.8c3.4,0,6.3,0.7,8.9,2
			c2.6,1.3,4.6,3.4,6,6.2c1.4,2.8,2.1,6.4,2.1,10.8v28.2h-4V66.5c0-5.4-1.2-9.4-3.5-12c-2.3-2.6-5.7-3.9-10-3.9c-3,0-5.7,0.8-8,2.3
			c-2.4,1.5-4.3,3.7-5.7,6.5c-1.4,2.8-2.2,6.2-2.2,10.1v24.8H213.6z"/>
		<path class="st0" d="M276.9,95.3c-3.4,0-6.3-0.7-8.7-2c-2.4-1.3-4.2-3.1-5.5-5.3c-1.3-2.2-1.9-4.5-1.9-7c0-3.4,0.8-6.1,2.3-8.3
			c1.6-2.1,3.7-3.7,6.5-4.8c2.8-1.1,6-1.6,9.7-1.6h13.9c0-3.2-0.5-6.1-1.4-8.4c-0.9-2.4-2.4-4.2-4.4-5.5c-2-1.3-4.5-1.9-7.7-1.9
			c-3.7,0-6.7,0.9-9.2,2.7c-2.5,1.8-4,4.5-4.6,8.1h-4.3c0.5-3.2,1.6-5.9,3.3-8c1.7-2.1,3.9-3.7,6.5-4.8c2.6-1.1,5.4-1.6,8.3-1.6
			c4.2,0,7.6,0.8,10.2,2.5s4.5,3.9,5.6,6.8c1.2,2.9,1.7,6.1,1.7,9.8v28.2h-3.8l-0.3-9.2c-0.5,1-1.3,2.1-2.1,3.2
			c-0.9,1.2-1.9,2.3-3.2,3.4c-1.3,1.1-2.8,2-4.6,2.7C281.7,94.9,279.5,95.3,276.9,95.3z M277.5,91.5c2.6,0,4.8-0.5,6.8-1.5
			c2-1,3.7-2.4,5-4c1.3-1.7,2.4-3.5,3-5.4c0.7-1.9,1-3.9,1-5.8v-4.9h-13.6c-3.7,0-6.6,0.5-8.7,1.5c-2.1,1-3.6,2.3-4.5,3.9
			c-0.9,1.6-1.3,3.5-1.3,5.6c0,2,0.5,3.7,1.4,5.4c0.9,1.6,2.4,2.9,4.2,3.9C272.8,91,275,91.5,277.5,91.5z"/>
		<path class="st0" d="M310,94.2V47.9h4v46.2H310z"/>
		<path class="st0" d="M327.6,94.2V47.9h3.7l0.4,9.4c1.6-3.5,3.8-6.1,6.6-7.8c2.8-1.7,6-2.6,9.5-2.6c3.4,0,6.3,0.7,8.9,2
			c2.6,1.3,4.6,3.4,6.1,6.1c1.4,2.8,2.2,6.4,2.2,10.8v28.3h-4V66.4c0-5.4-1.2-9.4-3.5-12c-2.4-2.6-5.7-3.9-10.1-3.9
			c-3.1,0-5.7,0.7-8,2.2c-2.3,1.5-4.1,3.6-5.5,6.3c-1.4,2.8-2.1,6.1-2.1,10.2v24.9H327.6z"/>
	</g>
	<g>
		<path class="st1" d="M95.1,40.1c4.7,0,8.7,1,12,2.9c3.3,1.9,5.8,4.5,7.6,7.8c1.8,3.3,2.6,7,2.6,11.2c0,0.8,0,1.6-0.1,2.4
			c-0.1,0.8-0.2,1.6-0.4,2.2H84.6c0.1,7.8,1.5,13.4,4.2,16.8c2.7,3.4,6.7,5.1,12,5.1c3.6,0,6.5-0.6,8.7-1.7s4.3-2.8,6.3-5.1l1.1,1
			c-2.2,4-5.2,7.1-8.9,9.3c-3.7,2.2-8.2,3.3-13.3,3.3c-5.1,0-9.6-1.1-13.6-3.3c-4-2.2-7.1-5.3-9.3-9.4c-2.2-4.1-3.3-9-3.3-14.7
			c0-5.9,1.3-10.9,3.9-15.1s5.9-7.3,10-9.4C86.3,41.2,90.6,40.1,95.1,40.1z M94.7,42.2c-2.1,0-3.9,0.6-5.3,1.9
			c-1.5,1.3-2.6,3.5-3.5,6.7c-0.8,3.2-1.3,7.7-1.3,13.6h18.5c0.7-7.8,0.4-13.5-0.9-17C100.9,44,98.4,42.2,94.7,42.2z"/>
		<path class="st1" d="M143.2,95.3c-4.6,0-8.2-1.2-10.7-3.5c-2.6-2.3-3.8-6-3.8-11V43.9h-7.5v-1.1l2.6-0.4c2.2-0.5,4.2-1.2,5.8-2.2
			c1.6-0.9,3.2-2.2,4.8-3.8l8.9-9.8h1.1L144,41.7h12.1v2.2h-12.2v38.9c0,2.5,0.6,4.4,1.7,5.7c1.1,1.3,2.5,1.9,4.3,1.9
			c1.5,0,2.8-0.4,4-1.1c1.1-0.8,2.3-1.8,3.5-3.1l1.1,1.1c-1.4,2.4-3.4,4.4-5.9,5.8C149.9,94.5,146.8,95.3,143.2,95.3z"/>
	</g>
	<g>
		<g>
			<defs>
				<path id="SVGID_1_" d="M318.6,35.3c-0.7,0.7-0.6,2.2,0.2,2.6c0.7,0.4,1.6-0.2,1.7-0.2c0.6-0.4,1.2-1.4,0.8-2.1
					C320.9,34.8,319.3,34.5,318.6,35.3z"/>
			</defs>
			<use xlink:href="#SVGID_1_"  style="overflow:visible;fill:#00B4E6;"/>
			<clipPath id="SVGID_00000151505581263560869990000017126134343739133576_">
				<use xlink:href="#SVGID_1_"  style="overflow:visible;"/>
			</clipPath>
		</g>
		<g>
			<defs>
				<path id="SVGID_00000137847028371236666090000007122470994716864687_" d="M316.5,30.3c-1.3-0.3-2.7,0.9-2.7,2.1
					c0.1,1,1.3,1.6,1.4,1.6c0.9,0.4,2.3,0.3,2.8-0.5C318.6,32.5,317.8,30.6,316.5,30.3z"/>
			</defs>
			<use xlink:href="#SVGID_00000137847028371236666090000007122470994716864687_"  style="overflow:visible;fill:#00B4E6;"/>
			<clipPath id="SVGID_00000054268367730853802900000003122908472732467860_">
				<use xlink:href="#SVGID_00000137847028371236666090000007122470994716864687_"  style="overflow:visible;"/>
			</clipPath>
		</g>
		<g>
			<defs>
				<path id="SVGID_00000060721874750694483820000011658564152171540376_" d="M309.5,31.8c0.3,1,1.7,1.5,2.4,1
					c0.7-0.4,0.6-1.5,0.6-1.6c-0.1-0.8-0.7-1.7-1.4-1.7C310.1,29.5,309.2,30.7,309.5,31.8z"/>
			</defs>
			<use xlink:href="#SVGID_00000060721874750694483820000011658564152171540376_"  style="overflow:visible;fill:#00B4E6;"/>
			<clipPath id="SVGID_00000137102628775266549940000016330437252247492270_">
				<use xlink:href="#SVGID_00000060721874750694483820000011658564152171540376_"  style="overflow:visible;"/>
			</clipPath>
		</g>
		<g>
			<defs>
				<path id="SVGID_00000003090625718350606680000001006163408309068735_" d="M313.2,34c-3.1-0.7-6.6,2.2-6.5,5
					c0.1,2.6,3.2,3.9,3.4,4c2.2,1,5.5,0.7,6.8-1.3C318.5,39.3,316.6,34.8,313.2,34z"/>
			</defs>
			<use xlink:href="#SVGID_00000003090625718350606680000001006163408309068735_"  style="overflow:visible;fill:#00B4E6;"/>
			<clipPath id="SVGID_00000158715730794791368330000008239715572617643662_">
				<use xlink:href="#SVGID_00000003090625718350606680000001006163408309068735_"  style="overflow:visible;"/>
			</clipPath>
		</g>
	</g>
	<path class="st1" d="M47,43.1c-5,8.5-8.9,17.7-11.7,27.2L25.2,43.5c-1.2-3.3-0.2-5.3,2.8-6l2.1-0.5v-1.2H0v1.2l1.6,0.5
		c2.6,0.9,4.5,2.6,5.6,5.2l14.6,33.9c0.4,1.1,0.9,2.1,1.4,3.2l6.2,14.4h18c0-0.1,0-0.1,0-0.2c5.3-27.9,19.3-57.3,44.2-72.6
		c25.7-16.4,59.8-16.6,84.4,2.4c0,0,1.7-2,1.7-2C140-16.5,73.2-1.1,47,43.1z"/>
</g>
</svg>
